<svg width="65" height="65" viewBox="0 0 65 65" fill="none" xmlns="http://www.w3.org/2000/svg">
<path d="M48.3301 27.7646C48.3301 19.0303 41.2207 11.9336 32.499 11.9336C23.7773 11.9336 16.668 19.0303 16.668 27.7646C16.668 36.4863 23.7646 43.5957 32.499 43.5957C41.2334 43.5957 48.3301 36.4863 48.3301 27.7646ZM32.499 41.5517C24.8945 41.5517 18.6992 35.3691 18.6992 27.7519C18.6992 20.1348 24.8945 13.9648 32.499 13.9648C40.1035 13.9648 46.2988 20.1475 46.2988 27.7646C46.2988 35.3818 40.1035 41.5517 32.499 41.5517Z" fill="#fb923c"/>
<path d="M51.8984 44.1415C52.4697 43.8496 52.9775 43.4687 53.3711 42.9355C54.3994 41.5263 54.1582 39.6855 53.9297 37.8955C53.7773 36.7402 53.625 35.5341 53.8916 34.7216C54.1328 33.9599 54.9453 33.1093 55.7197 32.2968C56.9258 31.0273 58.2842 29.5927 58.2842 27.7773C58.2842 25.9619 56.9385 24.5019 55.7324 23.2324C54.958 22.4072 54.1455 21.5693 53.9043 20.8076C53.6377 19.9951 53.79 18.789 53.9424 17.6337C54.1709 15.8437 54.3994 14.0029 53.3838 12.5937C52.3555 11.1718 50.5146 10.8291 48.7373 10.4863C47.5947 10.2705 46.4141 10.0546 45.7412 9.55952C45.0683 9.0771 44.5098 8.03608 43.9639 7.02046C43.1387 5.49702 42.1865 3.77046 40.498 3.21187C38.873 2.67866 37.21 3.46577 35.5976 4.22749C34.5185 4.7353 33.4141 5.25581 32.5254 5.25581C31.6367 5.25581 30.5322 4.7353 29.4531 4.22749C27.8408 3.46577 26.1777 2.67866 24.5527 3.21187C22.8516 3.75776 21.9629 5.42085 21.0869 7.02046C20.541 8.02339 19.9697 9.0771 19.3096 9.55952C18.624 10.0546 17.4561 10.2832 16.3135 10.4863C14.5361 10.8164 12.6953 11.1718 11.667 12.5937C10.6387 14.0029 10.8799 15.8437 11.1084 17.6337C11.2607 18.789 11.4131 19.9951 11.1465 20.8076C10.9053 21.5693 10.0928 22.4199 9.31836 23.2324C8.1123 24.5019 6.75391 25.9365 6.75391 27.7519C6.75391 29.5673 8.125 31.0019 9.31836 32.2714C10.0928 33.0966 10.9053 33.9345 11.1465 34.6962C11.4131 35.5087 11.2607 36.7148 11.1084 37.8701C10.8799 39.6601 10.6514 41.5009 11.667 42.9101C12.0605 43.4433 12.5684 43.8369 13.1396 44.1162L7.60449 53.7011C7.40137 54.0566 7.42676 54.5009 7.68066 54.831C7.93457 55.1611 8.35352 55.3007 8.74707 55.1992L16.9228 53.0029L19.1191 61.1787C19.2207 61.5722 19.5635 61.8642 19.9697 61.9277C20.0205 61.9277 20.0586 61.9404 20.0967 61.9404C20.4521 61.9404 20.7949 61.7499 20.9727 61.4326L26.165 52.4316C27.2695 52.3046 28.3867 51.7841 29.4658 51.2763C30.5449 50.7685 31.6494 50.248 32.5381 50.248C33.4268 50.248 34.5312 50.7685 35.6103 51.2763C36.6894 51.7841 37.8066 52.3173 38.9111 52.4316L44.1035 61.4326C44.2812 61.7499 44.624 61.9404 44.9795 61.9404C45.0176 61.9404 45.0683 61.9404 45.1064 61.9277C45.5127 61.8769 45.8428 61.5849 45.957 61.1787L48.1533 53.0029L56.3291 55.1992C56.7226 55.3007 57.1416 55.1611 57.3955 54.831C57.6494 54.5009 57.6748 54.0566 57.4717 53.7011L51.8984 44.1415ZM20.4014 58.3095L18.5859 51.5175C18.4463 50.9716 17.8877 50.6542 17.3418 50.7939L10.5498 52.6093L15.0693 44.7763C15.4629 44.8652 15.8691 44.9414 16.2754 45.0175C17.418 45.2333 18.5986 45.4492 19.2715 45.9443C19.9443 46.4267 20.5029 47.4677 21.0488 48.4833C21.7852 49.8417 22.6103 51.3525 23.9814 52.0634L20.4014 58.3095ZM32.5 48.2294C31.1543 48.2294 29.834 48.8515 28.5644 49.4482C27.3076 50.0449 26.0127 50.6542 25.1621 50.3749C24.2353 50.0703 23.5371 48.7753 22.8516 47.5312C22.1914 46.3251 21.5186 45.081 20.4775 44.3193C19.4238 43.5576 18.0146 43.291 16.6562 43.0371C15.2725 42.7705 13.8379 42.5039 13.2666 41.7421C12.7207 40.9931 12.8984 39.5458 13.0762 38.1621C13.2539 36.7783 13.4316 35.3564 13.0254 34.0996C12.6318 32.9062 11.667 31.8779 10.7402 30.9003C9.75 29.8593 8.72168 28.7802 8.72168 27.7773C8.72168 26.7744 9.75 25.6953 10.7402 24.6542C11.6797 23.664 12.6445 22.6484 13.0254 21.455C13.4316 20.1982 13.2539 18.7763 13.0762 17.3925C12.8984 15.996 12.7207 14.5615 13.2666 13.8125C13.8252 13.038 15.2598 12.7714 16.6562 12.5175C18.0146 12.2636 19.4238 11.997 20.4775 11.2353C21.5186 10.4863 22.1914 9.22944 22.8516 8.02339C23.5371 6.76655 24.2353 5.48433 25.1621 5.17964C26.0254 4.90034 27.3203 5.50972 28.5644 6.1064C29.834 6.70308 31.1543 7.32515 32.5 7.32515C33.8457 7.32515 35.166 6.70308 36.4355 6.1064C37.6924 5.50972 38.9873 4.90034 39.8379 5.17964C40.7646 5.48433 41.4629 6.77925 42.1484 8.02339C42.8086 9.22944 43.4814 10.4736 44.5225 11.2353C45.5762 11.997 46.9853 12.2636 48.3437 12.5175C49.7275 12.7841 51.1621 13.0507 51.7334 13.8125C52.2793 14.5615 52.1016 16.0087 51.9238 17.3925C51.7461 18.7763 51.5683 20.1982 51.9746 21.455C52.3682 22.6484 53.333 23.6767 54.2598 24.6542C55.25 25.6953 56.2783 26.7744 56.2783 27.7773C56.2783 28.7802 55.25 29.8593 54.2598 30.9003C53.3203 31.8906 52.3555 32.9062 51.9746 34.0996C51.5683 35.3564 51.7461 36.7783 51.9238 38.1621C52.1016 39.5585 52.2793 40.9931 51.7334 41.7421C51.1748 42.5165 49.7402 42.7831 48.3437 43.0371C46.9853 43.291 45.5762 43.5576 44.5225 44.3193C43.4814 45.0683 42.8086 46.3251 42.1484 47.5312C41.4629 48.788 40.7646 50.0703 39.8379 50.3749C38.9746 50.6542 37.6797 50.0449 36.4355 49.4482C35.166 48.8515 33.8457 48.2294 32.5 48.2294ZM47.6582 50.7939C47.1123 50.6542 46.5537 50.9716 46.4141 51.5175L44.5986 58.3095L41.0058 52.0888C42.3642 51.3906 43.1641 49.9306 43.9385 48.5087C44.4844 47.5058 45.0557 46.4521 45.7158 45.9697C46.4014 45.4746 47.5693 45.246 48.7119 45.0429C49.1182 44.9667 49.5244 44.8906 49.918 44.8017L54.4375 52.6347L47.6582 50.7939Z" fill="#fb923c"/>
<path d="M42.0208 21.5442C41.6272 21.1506 40.9797 21.1506 40.5862 21.5442L30.303 31.8274L24.425 25.9495C24.0315 25.5559 23.384 25.5559 22.9905 25.9495C22.5969 26.343 22.5969 26.9905 22.9905 27.384L29.592 33.9856C29.7825 34.176 30.0364 34.2776 30.3157 34.2776C30.595 34.2776 30.8489 34.176 31.0393 33.9856L42.0208 22.9788C42.4143 22.5852 42.4143 21.9377 42.0208 21.5442V21.5442Z" fill="#fb923c"/>
</svg>
