<svg width="73" height="73" viewBox="0 0 73 73" fill="none" xmlns="http://www.w3.org/2000/svg">
<path d="M58.1873 26.4866C58.1873 14.5082 48.4769 4.79785 36.4986 4.79785C24.5202 4.79785 14.8098 14.5082 14.8098 26.4866C11.7131 26.8722 8.78516 28.8965 8.78516 33.5957V44.922C8.78516 50.2237 12.4963 52.1516 16.0147 52.1516H19.509C20.1745 52.1516 20.714 51.6121 20.714 50.9467V27.6192C20.714 26.9538 20.1745 26.4143 19.509 26.4143H17.2197C17.2197 15.7669 25.8512 7.13542 36.4986 7.13542C47.1459 7.13542 55.7774 15.7669 55.7774 26.4143H53.4881C52.8226 26.4143 52.2831 26.9538 52.2831 27.6192V50.9105C52.2831 51.576 52.8226 52.1155 53.4881 52.1155H55.7774C55.4401 60.3933 51.4638 62.3333 43.5233 62.6827V61.8754C43.5233 60.5444 42.4444 59.4655 41.1134 59.4655H33.5344C32.2034 59.4655 31.1246 60.5444 31.1246 61.8754V65.7914C31.1246 67.1224 32.2034 68.2013 33.5344 68.2013H41.1375C42.4685 68.2013 43.5474 67.1224 43.5474 65.7914V65.0926C51.1867 64.7431 57.7897 63.1647 58.1873 52.0432C61.284 51.6576 64.2119 49.6333 64.2119 44.9341V33.6077C64.2119 28.8844 61.296 26.8722 58.1873 26.4866ZM18.3041 28.7398V49.7056H15.9545C14.1712 49.7056 11.1348 49.079 11.1348 44.8859V33.5595C11.1348 29.4025 14.135 28.7398 15.9545 28.7398H18.3041V28.7398ZM41.1375 63.972V65.8035H33.5344V61.8875H41.1375V63.972ZM61.8021 44.922C61.8021 49.079 58.8018 49.7418 56.9824 49.7418H54.693V28.8242H57.0426C58.8259 28.8242 61.8623 29.4507 61.8623 33.6439L61.8021 44.922Z" fill="#fb923c"/>
</svg>
