<svg width="59" height="59" viewBox="0 0 59 59" fill="none" xmlns="http://www.w3.org/2000/svg">
<g clip-path="url(#clip0_1116_736)">
<path d="M8.87062 49.1432H2.59277C2.11628 49.1432 1.72852 48.7555 1.72852 48.2789V2.99219C1.72852 2.51558 2.11628 2.12793 2.59277 2.12793H18.1654V14.2606C18.1654 14.861 18.4932 15.4119 19.0206 15.6986C19.5481 15.9854 20.1887 15.9604 20.6924 15.6337L25.9101 12.2497L31.1279 15.6337C31.3982 15.809 31.7079 15.8975 32.0183 15.8975C32.2865 15.8975 32.5553 15.8316 32.7997 15.6986C33.3273 15.412 33.655 14.861 33.655 14.2606V2.12793H49.2277C49.7043 2.12793 50.0919 2.51558 50.0919 2.99219V13.8681C50.0919 14.3455 50.4789 14.7324 50.9562 14.7324C51.4335 14.7324 51.8204 14.3455 51.8204 13.8681V2.99219C51.8204 1.56259 50.6574 0.399414 49.2277 0.399414H2.59277C1.16306 0.399414 0 1.56259 0 2.99219V48.2789C0 49.7085 1.16306 50.8717 2.59277 50.8717H8.87062C9.34792 50.8717 9.73488 50.4849 9.73488 50.0075C9.73488 49.53 9.34792 49.1432 8.87062 49.1432ZM31.9265 14.0913L26.8006 10.7667C26.2597 10.4162 25.5606 10.416 25.0197 10.7668L19.8939 14.0913V2.12793H31.9265V14.0913Z" fill="#fb923c" stroke="#fb923c" stroke-width="0.4"/>
<path d="M7.53809 37.6289C6.74378 37.6289 6.09766 38.275 6.09766 39.0693V43.865C6.09766 44.6594 6.74378 45.3055 7.53809 45.3055H19.0711C19.8654 45.3055 20.5115 44.6594 20.5115 43.865V39.0693C20.5115 38.275 19.8654 37.6289 19.0711 37.6289H7.53809ZM18.783 43.577H7.82617V39.3574H18.783V43.577Z" fill="#fb923c" stroke="#fb923c" stroke-width="0.4"/>
<path d="M51.8082 27.9584C51.816 27.9117 51.821 27.8641 51.821 27.8153V17.6348C51.821 17.1573 51.434 16.7705 50.9567 16.7705C50.4794 16.7705 50.0925 17.1573 50.0925 17.6348V26.9012C47.7262 25.6318 45.0239 24.9107 42.1559 24.9107C40.4483 24.9107 38.7631 25.1654 37.1471 25.6681C36.6914 25.8098 36.4368 26.2943 36.5786 26.75C36.7203 27.2058 37.2049 27.4609 37.6605 27.3186C39.11 26.8678 40.6225 26.6393 42.1559 26.6393C50.4909 26.6393 57.272 33.4204 57.272 41.7554C57.272 50.0904 50.4909 56.8715 42.1559 56.8715C33.8209 56.8715 27.0398 50.0904 27.0398 41.7554C27.0398 39.0954 27.7401 36.4802 29.0648 34.1923C30.3508 31.9714 32.1945 30.0998 34.3964 28.78C34.8058 28.5347 34.9388 28.0039 34.6933 27.5945C34.4479 27.185 33.9171 27.0521 33.5077 27.2975C31.055 28.7676 29.0014 30.8523 27.569 33.3261C26.092 35.8769 25.3113 38.7917 25.3113 41.7553C25.3113 44.4039 25.9266 46.9113 27.0206 49.1433H12.6377C12.1604 49.1433 11.7734 49.5301 11.7734 50.0076C11.7734 50.485 12.1604 50.8718 12.6377 50.8718H27.9978C30.9998 55.518 36.2246 58.5999 42.1559 58.5999C51.444 58.5998 59.0005 51.0434 59.0005 41.7552C59.0005 36.055 56.1539 31.0077 51.8082 27.9584V27.9584Z" fill="#fb923c" stroke="#fb923c" stroke-width="0.4"/>
<path d="M42.6044 30.9727C38.8153 30.9727 35.3615 32.9624 33.4273 36.097L33.1683 35.2405C33.03 34.7836 32.5477 34.5251 32.0909 34.6634C31.634 34.8014 31.3756 35.2839 31.5138 35.7408L32.4164 38.726C32.5294 39.0994 32.8723 39.3403 33.2433 39.3403C33.3262 39.3403 33.4104 39.3282 33.4937 39.3031L36.479 38.4005C36.9359 38.2625 37.1944 37.7801 37.0562 37.3231C36.9182 36.8662 36.4357 36.6078 35.9788 36.746L34.8463 37.0884C36.4599 34.4074 39.3886 32.7011 42.6045 32.7011C46.4531 32.7011 49.889 35.1415 51.154 38.7736C51.2782 39.1303 51.6125 39.3538 51.9701 39.3538C52.0644 39.3538 52.1603 39.3382 52.2544 39.3055C52.7052 39.1485 52.9432 38.6557 52.7863 38.205C51.2795 33.8792 47.1879 30.9727 42.6044 30.9727V30.9727Z" fill="#fb923c" stroke="#fb923c" stroke-width="0.4"/>
<path d="M41.7066 50.809C37.858 50.809 34.4222 48.3686 33.1572 44.7365C33.0001 44.2856 32.5074 44.0475 32.0568 44.2046C31.606 44.3616 31.3679 44.8544 31.5249 45.3051C33.0316 49.6311 37.1233 52.5377 41.7066 52.5377C45.4958 52.5377 48.9496 50.548 50.8838 47.4133L51.1427 48.27C51.2556 48.6434 51.5987 48.8843 51.9696 48.8843C52.0525 48.8843 52.1367 48.8723 52.22 48.8471C52.6769 48.709 52.9353 48.2265 52.7973 47.7696L51.8947 44.7844C51.7566 44.3275 51.2741 44.0692 50.8173 44.2073L47.832 45.1098C47.3751 45.2478 47.1167 45.7302 47.2548 46.1871C47.393 46.6441 47.8756 46.9025 48.3323 46.7643L49.4649 46.422C47.8512 49.1027 44.9225 50.809 41.7066 50.809V50.809Z" fill="#fb923c" stroke="#fb923c" stroke-width="0.4"/>
</g>
<defs>
<clipPath id="clip0_1116_736">
<rect width="59" height="59" fill="white"/>
</clipPath>
</defs>
</svg>
