<svg width="73" height="73" viewBox="0 0 73 73" fill="none" xmlns="http://www.w3.org/2000/svg">
<path d="M67.8897 32.9873L65.9993 25.4256C66.5161 25.3158 66.9039 24.8573 66.9039 24.308V23.0888C66.9039 20.4417 64.7503 18.2882 62.1033 18.2882H53.4928V15.7734C53.4928 14.4708 52.4331 13.4111 51.1305 13.4111H7.23898C5.93638 13.4111 4.87674 14.4708 4.87674 15.7734V36.4999C4.87674 37.1311 5.38846 37.643 6.01979 37.643C6.65099 37.643 7.16284 37.1313 7.16284 36.4999V15.7734C7.16284 15.7313 7.19692 15.6972 7.23898 15.6972H51.1304C51.1724 15.6972 51.2065 15.7313 51.2065 15.7734V36.5002C51.2065 37.1314 51.7182 37.6433 52.3496 37.6433C52.9808 37.6433 53.4926 37.1316 53.4926 36.5002V35.2045H66.9761C66.9772 35.2045 66.9781 35.2048 66.9791 35.2048C66.9802 35.2048 66.9812 35.2046 66.9822 35.2046C68.6414 35.2058 70.0502 36.2948 70.5341 37.7954H66.9799C66.3487 37.7954 65.8369 38.3071 65.8369 38.9385V41.3768C65.8369 43.3517 67.4435 44.9583 69.4183 44.9583H70.7138V49.9874H67.725C66.7432 47.1525 64.0484 45.1105 60.8839 45.1105C57.7193 45.1105 55.0243 47.1525 54.0427 49.9874H53.4923V41.3767C53.4923 40.7455 52.9806 40.2336 52.3493 40.2336C51.7181 40.2336 51.2062 40.7454 51.2062 41.3767V49.9871H27.4915C26.5097 47.1522 23.8148 45.1102 20.6503 45.1102C17.4858 45.1102 14.7908 47.1522 13.8091 49.9871H7.23898C7.19692 49.9871 7.16284 49.953 7.16284 49.911V47.3963H12.1159C12.7471 47.3963 13.2589 46.8846 13.2589 46.2533C13.2589 45.622 12.7472 45.1102 12.1159 45.1102H1.14305C0.511856 45.1102 0 45.622 0 46.2533C0 46.8846 0.511713 47.3963 1.14305 47.3963H4.87689V49.911C4.87689 51.2136 5.93653 52.2732 7.23912 52.2732H13.4133C13.413 52.2986 13.4113 52.3238 13.4113 52.3494C13.4113 56.341 16.6588 59.5883 20.6503 59.5883C24.6418 59.5883 27.8893 56.341 27.8893 52.3494C27.8893 52.3237 27.8876 52.2986 27.8873 52.2732H53.6469C53.6466 52.2986 53.6449 52.3238 53.6449 52.3494C53.6449 56.341 56.8924 59.5883 60.8839 59.5883C64.8753 59.5883 68.1228 56.341 68.1228 52.3494C68.1228 52.3237 68.1211 52.2986 68.1208 52.2732H71.8568C72.488 52.2732 72.9999 51.7615 72.9999 51.1302V38.9382C73 35.9281 70.7791 33.4271 67.8897 32.9873ZM53.4928 20.5741H62.1033C63.4899 20.5741 64.618 21.7022 64.618 23.0888V23.1649H53.4928V20.5741ZM53.4928 32.9185V25.4509H63.6493L65.5162 32.9185H53.4928ZM20.6503 57.3027C17.9192 57.3027 15.6973 55.0809 15.6973 52.3496C15.6973 49.6184 17.9192 47.3966 20.6503 47.3966C23.3814 47.3966 25.6033 49.6184 25.6033 52.3496C25.6033 55.0809 23.3814 57.3027 20.6503 57.3027ZM60.8841 57.3027C58.1531 57.3027 55.9311 55.0809 55.9311 52.3496C55.9311 49.6184 58.1531 47.3966 60.8841 47.3966C63.6152 47.3966 65.8372 49.6184 65.8372 52.3496C65.8372 55.0809 63.6152 57.3027 60.8841 57.3027ZM70.7141 42.6722H69.4186C68.7043 42.6722 68.1231 42.091 68.1231 41.3767V40.0812H70.7139V42.6722H70.7141Z" fill="#fb923c"/>
<path d="M20.6513 49.9873C19.3487 49.9873 18.2891 51.0469 18.2891 52.3495C18.2891 53.6521 19.3487 54.7118 20.6513 54.7118C21.9539 54.7118 23.0135 53.6521 23.0135 52.3495C23.0135 51.0469 21.9539 49.9873 20.6513 49.9873Z" fill="#fb923c"/>
<path d="M60.8818 49.9873C59.5792 49.9873 58.5195 51.0469 58.5195 52.3495C58.5195 53.6521 59.5792 54.7118 60.8818 54.7118C62.1844 54.7118 63.244 53.6521 63.244 52.3495C63.244 51.0469 62.1844 49.9873 60.8818 49.9873Z" fill="#fb923c"/>
<path d="M47.4736 45.1104H30.4048C29.7736 45.1104 29.2617 45.6221 29.2617 46.2534C29.2617 46.8847 29.7734 47.3965 30.4048 47.3965H47.4736C48.1048 47.3965 48.6167 46.8847 48.6167 46.2534C48.6167 45.6221 48.105 45.1104 47.4736 45.1104Z" fill="#fb923c"/>
<path d="M18.2111 40.2344H3.58055C2.94936 40.2344 2.4375 40.7461 2.4375 41.3774C2.4375 42.0088 2.94921 42.5205 3.58055 42.5205H18.2111C18.8423 42.5205 19.3541 42.0088 19.3541 41.3774C19.3541 40.7461 18.8423 40.2344 18.2111 40.2344Z" fill="#fb923c"/>
<path d="M39.7467 24.7185C39.3004 24.2722 38.5765 24.2722 38.1303 24.7186L27.9656 34.8832L22.6778 29.5954C22.2314 29.1489 21.5076 29.1489 21.0614 29.5954C20.615 30.0418 20.615 30.7654 21.0614 31.2118L27.1574 37.3078C27.3806 37.5311 27.6732 37.6426 27.9656 37.6426C28.258 37.6426 28.5507 37.5311 28.7737 37.3078L39.7465 26.335C40.1929 25.8885 40.1929 25.1649 39.7467 24.7185Z" fill="#fb923c"/>
</svg>
