<svg width="64" height="64" viewBox="0 0 64 64" fill="none" xmlns="http://www.w3.org/2000/svg">
<path d="M31.1663 61.8728C31.4368 61.9565 31.7182 61.9993 32.0013 61.9998C32.2775 61.9991 32.5522 61.9577 32.8163 61.8768C36.8366 60.7247 40.6355 58.9072 44.0553 56.4998C44.2585 56.3418 44.393 56.1115 44.4307 55.8569C44.4684 55.6023 44.4065 55.3429 44.2578 55.1327C44.1092 54.9226 43.8852 54.7779 43.6325 54.7287C43.3798 54.6796 43.1179 54.7297 42.9013 54.8688C39.659 57.1491 36.0574 58.87 32.2463 59.9598C32.0804 60.0128 31.9022 60.0128 31.7363 59.9598C26.7586 58.5468 22.1552 56.0497 18.2563 52.6478C18.1593 52.5523 18.0439 52.4776 17.917 52.4283C17.7902 52.379 17.6546 52.3561 17.5186 52.361C17.3826 52.3659 17.249 52.3985 17.126 52.4569C17.0031 52.5152 16.8933 52.5981 16.8035 52.7003C16.7136 52.8025 16.6456 52.922 16.6036 53.0515C16.5615 53.1809 16.5464 53.3176 16.559 53.4531C16.5716 53.5886 16.6118 53.7201 16.677 53.8396C16.7422 53.959 16.8311 54.0639 16.9383 54.1478C21.0535 57.7402 25.9121 60.3782 31.1663 61.8728V61.8728Z" fill="#fb923c"/>
<path d="M5.56915 15.0528C5.43894 15.0354 5.30657 15.0437 5.1796 15.0775C5.05263 15.1112 4.93355 15.1696 4.82917 15.2494C4.72478 15.3292 4.63714 15.4287 4.57125 15.5424C4.50536 15.6561 4.46251 15.7816 4.44515 15.9118C3.74015 21.1828 2.90015 34.6998 10.3002 46.3808C10.3704 46.4918 10.4618 46.5878 10.5692 46.6635C10.6766 46.7391 10.7978 46.7928 10.926 46.8216C11.0541 46.8504 11.1867 46.8537 11.3161 46.8312C11.4455 46.8088 11.5692 46.7611 11.6802 46.6908C11.7911 46.6206 11.8872 46.5291 11.9628 46.4218C12.0384 46.3144 12.0922 46.1932 12.121 46.065C12.1497 45.9369 12.153 45.8043 12.1306 45.6749C12.1081 45.5455 12.0604 45.4218 11.9902 45.3108C4.94015 34.1868 5.75115 21.2308 6.42615 16.1768C6.46141 15.9141 6.39095 15.6482 6.23026 15.4374C6.06957 15.2267 5.83178 15.0883 5.56915 15.0528V15.0528Z" fill="#fb923c"/>
<path d="M13.0375 48.5472C12.9351 48.6295 12.8499 48.7312 12.7868 48.8466C12.7237 48.9619 12.684 49.0885 12.6698 49.2191C12.6557 49.3498 12.6675 49.482 12.7045 49.6081C12.7415 49.7342 12.803 49.8518 12.8855 49.9542C13.1855 50.3262 13.5065 50.6982 13.8365 51.0702C13.9237 51.1687 14.0293 51.249 14.1475 51.3067C14.2657 51.3643 14.3941 51.3981 14.5254 51.4062C14.6566 51.4142 14.7882 51.3963 14.9125 51.3535C15.0368 51.3107 15.1515 51.2438 15.25 51.1567C15.3485 51.0695 15.4289 50.9639 15.4865 50.8457C15.5442 50.7275 15.578 50.5991 15.586 50.4678C15.5941 50.3366 15.5762 50.205 15.5333 50.0807C15.4905 49.9563 15.4237 49.8417 15.3365 49.7432C15.0275 49.3942 14.7275 49.0432 14.4475 48.6992C14.3651 48.5963 14.2632 48.5107 14.1477 48.4474C14.0321 48.384 13.9052 48.3441 13.7741 48.33C13.6431 48.3159 13.5106 48.3278 13.3842 48.365C13.2577 48.4023 13.1399 48.4642 13.0375 48.5472Z" fill="#fb923c"/>
<path d="M56.9877 12.619C53.3543 11.9866 49.7947 10.9865 46.3637 9.63401C41.8757 7.8577 37.6439 5.49229 33.7797 2.60001C33.266 2.21375 32.6408 2.00488 31.9982 2.00488C31.3555 2.00488 30.7303 2.21375 30.2167 2.60001C28.2915 4.04019 26.2738 5.35234 24.1767 6.52801C24.0618 6.59212 23.9607 6.67825 23.8792 6.78147C23.7977 6.88469 23.7374 7.00298 23.7017 7.12956C23.6659 7.25614 23.6555 7.38852 23.671 7.51913C23.6866 7.64973 23.7277 7.776 23.7921 7.89069C23.8564 8.00537 23.9428 8.10624 24.0462 8.1875C24.1497 8.26876 24.2681 8.32882 24.3947 8.36424C24.5214 8.39966 24.6538 8.40975 24.7844 8.39392C24.915 8.37809 25.0411 8.33667 25.1557 8.27201C27.3308 7.05036 29.4233 5.68709 31.4197 4.19101C31.5857 4.06338 31.7892 3.99418 31.9987 3.99418C32.2081 3.99418 32.4116 4.06338 32.5777 4.19101C36.5852 7.1926 40.9744 9.64748 45.6297 11.491C49.1901 12.8953 52.8841 13.934 56.6547 14.591C56.8598 14.6258 57.0484 14.7257 57.1924 14.8759C57.3365 15.026 57.4284 15.2186 57.4547 15.425C58.0977 19.651 59.0767 30.613 54.2847 41.089C54.2275 41.2087 54.1948 41.3386 54.1883 41.4711C54.1819 41.6036 54.2018 41.736 54.247 41.8607C54.2923 41.9854 54.3618 42.0999 54.4517 42.1974C54.5416 42.295 54.65 42.3737 54.7706 42.4289C54.8912 42.4842 55.0215 42.5149 55.1541 42.5192C55.2867 42.5236 55.4188 42.5016 55.5428 42.4544C55.6667 42.4072 55.7801 42.3359 55.8762 42.2445C55.9723 42.1531 56.0493 42.0435 56.1027 41.922C61.1197 30.955 60.1027 19.528 59.4327 15.122C59.342 14.4999 59.0565 13.9226 58.6172 13.4729C58.1779 13.0232 57.6074 12.7243 56.9877 12.619Z" fill="#fb923c"/>
<path d="M31.0348 54.8269C31.3439 54.9403 31.6705 54.9989 31.9998 54.9999C32.3239 54.9995 32.6454 54.9423 32.9498 54.8309C34.3294 54.3456 35.6744 53.7672 36.9758 53.0999C37.0926 53.0397 37.1964 52.9572 37.2813 52.8569C37.3662 52.7566 37.4305 52.6406 37.4706 52.5155C37.5107 52.3904 37.5257 52.2586 37.5148 52.1276C37.504 51.9967 37.4674 51.8692 37.4073 51.7524C37.3471 51.6356 37.2646 51.5317 37.1643 51.4468C37.064 51.3619 36.948 51.2976 36.8229 51.2575C36.6978 51.2175 36.566 51.2024 36.435 51.2133C36.3041 51.2242 36.1766 51.2607 36.0598 51.3209C34.8367 51.9498 33.5721 52.4944 32.2748 52.9509C32.0931 53.0219 31.8914 53.0219 31.7098 52.9509C27.2264 51.415 23.1969 48.7853 19.9858 45.2999C12.4378 37.0689 11.7728 26.0489 12.0468 20.2338C12.0562 20.0789 12.0952 19.9271 12.1618 19.7868C12.2586 19.5508 12.2616 19.2866 12.1701 19.0485C12.0785 18.8103 11.8994 18.6161 11.6694 18.5057C11.4393 18.3953 11.1758 18.377 10.9327 18.4545C10.6896 18.5321 10.4854 18.6996 10.3618 18.9228C10.1835 19.2995 10.0793 19.7069 10.0548 20.1228C9.76477 26.2699 10.4788 37.8919 18.5158 46.6559C21.9449 50.3775 26.2476 53.1859 31.0348 54.8269V54.8269Z" fill="#fb923c"/>
<path d="M50.3737 36.9995C50.4834 37.0404 50.5996 37.0614 50.7167 37.0615C50.9217 37.0614 51.1217 36.9984 51.2896 36.8808C51.4576 36.7633 51.5854 36.597 51.6557 36.4045C53.4775 31.1777 54.2555 25.644 53.9457 20.1175C53.9264 19.7133 53.8272 19.317 53.6539 18.9514C53.4805 18.5858 53.2364 18.2582 52.9357 17.9875C52.8404 17.8889 52.7258 17.811 52.5991 17.7586C52.4725 17.7062 52.3364 17.6804 52.1993 17.6828C52.0622 17.6852 51.9271 17.7157 51.8023 17.7725C51.6776 17.8294 51.5658 17.9112 51.474 18.013C51.3822 18.1149 51.3124 18.2345 51.2687 18.3645C51.2251 18.4944 51.2087 18.632 51.2205 18.7686C51.2323 18.9051 51.272 19.0379 51.3372 19.1584C51.4025 19.279 51.4918 19.3849 51.5997 19.4695C51.7043 19.5644 51.7891 19.6791 51.8492 19.807C51.9092 19.9349 51.9434 20.0734 51.9497 20.2145C52.2473 25.4733 51.5104 30.7394 49.7807 35.7145C49.7351 35.8378 49.7144 35.9689 49.7195 36.1002C49.7247 36.2315 49.7557 36.3606 49.8108 36.4799C49.8658 36.5993 49.9439 36.7066 50.0405 36.7957C50.1371 36.8849 50.2503 36.9541 50.3737 36.9995Z" fill="#fb923c"/>
<path d="M31.6106 11.0821C31.752 11.0178 31.9072 10.9902 32.0621 11.0017C32.2169 11.0133 32.3664 11.0636 32.4966 11.1481C35.3751 13.006 38.4052 14.6177 41.5546 15.9661C41.7966 16.0606 42.0658 16.0574 42.3054 15.9569C42.5449 15.8565 42.736 15.6667 42.8381 15.4279C42.9403 15.189 42.9455 14.9198 42.8526 14.6772C42.7598 14.4346 42.5761 14.2377 42.3406 14.1281C39.2946 12.8227 36.3639 11.2632 33.5796 9.46607C33.1712 9.20322 32.7039 9.04603 32.2197 9.00868C31.7354 8.97132 31.2495 9.05496 30.8056 9.25208C30.5767 9.36688 30.4006 9.56513 30.3135 9.80597C30.2264 10.0468 30.2351 10.3119 30.3376 10.5465C30.4402 10.7812 30.6289 10.9675 30.8648 11.0672C31.1008 11.1668 31.3659 11.1722 31.6056 11.0821H31.6106Z" fill="#fb923c"/>
<path d="M47.4905 18.175C47.584 18.2031 47.681 18.2173 47.7785 18.217C48.0186 18.2168 48.2506 18.1303 48.4321 17.9732C48.6136 17.8162 48.7326 17.5991 48.7673 17.3615C48.802 17.124 48.7501 16.8819 48.6211 16.6795C48.492 16.4771 48.2945 16.3278 48.0645 16.259C47.5815 16.114 47.0995 15.95 46.6165 15.776C46.367 15.6861 46.0919 15.699 45.8519 15.8119C45.6118 15.9248 45.4265 16.1284 45.3365 16.378C45.2466 16.6276 45.2596 16.9026 45.3724 17.1427C45.4853 17.3827 45.689 17.5681 45.9385 17.658C46.4565 17.844 46.9735 18.02 47.4905 18.175Z" fill="#fb923c"/>
<path d="M26.6114 29.481C26.017 28.8986 25.218 28.5725 24.3859 28.5725C23.5537 28.5725 22.7548 28.8986 22.1604 29.481L20.9084 30.758C20.3258 31.3589 20 32.163 20 33C20 33.837 20.3258 34.6411 20.9084 35.242L28.5704 43.061C28.8598 43.3581 29.2057 43.5943 29.5879 43.7555C29.97 43.9168 30.3806 43.9998 30.7954 43.9998C31.2101 43.9998 31.6207 43.9168 32.0028 43.7555C32.385 43.5943 32.731 43.3581 33.0204 43.061L47.0924 28.7C47.6749 28.0991 48.0007 27.295 48.0007 26.458C48.0007 25.621 47.6749 24.8169 47.0924 24.216L45.8404 22.939C45.5516 22.6412 45.2059 22.4047 44.8239 22.2433C44.4418 22.082 44.0311 21.9993 43.6164 22C43.2013 21.9992 42.7903 22.0819 42.4079 22.2433C42.0255 22.4046 41.6794 22.6412 41.3904 22.939L31.5904 32.939C31.3784 33.1486 31.0924 33.2661 30.7944 33.2661C30.4963 33.2661 30.2103 33.1486 29.9984 32.939L26.6114 29.481ZM33.0204 34.338L42.8204 24.338C42.9236 24.231 43.0474 24.146 43.1842 24.0878C43.321 24.0297 43.4682 23.9998 43.6169 23.9998C43.7655 23.9998 43.9127 24.0297 44.0495 24.0878C44.1864 24.146 44.3101 24.231 44.4134 24.338L45.6654 25.616C45.8843 25.8416 46.0068 26.1436 46.0068 26.458C46.0068 26.7724 45.8843 27.0744 45.6654 27.3L31.5914 41.662C31.3794 41.8716 31.0934 41.9891 30.7954 41.9891C30.4973 41.9891 30.2113 41.8716 29.9994 41.662L22.3374 33.842C22.1184 33.6164 21.996 33.3144 21.996 33C21.996 32.6856 22.1184 32.3836 22.3374 32.158L23.5894 30.88C23.8016 30.6706 24.0877 30.5532 24.3859 30.5532C24.684 30.5532 24.9701 30.6706 25.1824 30.88L28.5704 34.338C29.1647 34.9201 29.9635 35.246 30.7954 35.246C31.6273 35.246 32.426 34.9201 33.0204 34.338Z" fill="#fb923c"/>
<path d="M9 14.0004C9.00011 14.2341 9.0821 14.4604 9.23171 14.64C9.38133 14.8196 9.58912 14.9411 9.819 14.9834C16.16 16.1514 16.849 16.8404 18.019 23.1834C18.0619 23.4128 18.1836 23.62 18.3631 23.7691C18.5426 23.9182 18.7686 23.9998 19.002 23.9998C19.2354 23.9998 19.4614 23.9182 19.6409 23.7691C19.8204 23.62 19.9422 23.4128 19.985 23.1834C21.153 16.8424 21.842 16.1534 28.185 14.9834C28.4144 14.9405 28.6216 14.8188 28.7707 14.6393C28.9198 14.4598 29.0014 14.2337 29.0014 14.0004C29.0014 13.767 28.9198 13.541 28.7707 13.3615C28.6216 13.1819 28.4144 13.0602 28.185 13.0174C21.844 11.8494 21.155 11.1604 19.985 4.81737C19.9422 4.58797 19.8204 4.38079 19.6409 4.23169C19.4614 4.08259 19.2354 4.00098 19.002 4.00098C18.7686 4.00098 18.5426 4.08259 18.3631 4.23169C18.1836 4.38079 18.0619 4.58797 18.019 4.81737C16.851 11.1584 16.162 11.8474 9.819 13.0174C9.58912 13.0597 9.38133 13.1812 9.23171 13.3607C9.0821 13.5403 9.00011 13.7666 9 14.0004ZM19 9.29137C19.297 10.4233 19.8896 11.4559 20.717 12.2833C21.5445 13.1108 22.5771 13.7034 23.709 14.0004C22.5771 14.2973 21.5445 14.8899 20.717 15.7174C19.8896 16.5449 19.297 17.5775 19 18.7094C18.703 17.5775 18.1104 16.5449 17.283 15.7174C16.4555 14.8899 15.4229 14.2973 14.291 14.0004C15.4229 13.7034 16.4555 13.1108 17.283 12.2833C18.1104 11.4559 18.703 10.4233 19 9.29137Z" fill="#fb923c"/>
<path d="M59.1824 49.0174C52.8414 47.8494 52.1524 47.1604 50.9824 40.8174C50.9395 40.588 50.8178 40.3808 50.6383 40.2317C50.4588 40.0826 50.2328 40.001 49.9994 40.001C49.766 40.001 49.54 40.0826 49.3605 40.2317C49.181 40.3808 49.0592 40.588 49.0164 40.8174C47.8484 47.1584 47.1594 47.8474 40.8164 49.0174C40.587 49.0602 40.3798 49.1819 40.2307 49.3615C40.0816 49.541 40 49.767 40 50.0004C40 50.2337 40.0816 50.4598 40.2307 50.6393C40.3798 50.8188 40.587 50.9405 40.8164 50.9834C47.1574 52.1514 47.8464 52.8404 49.0164 59.1834C49.0592 59.4128 49.181 59.62 49.3605 59.7691C49.54 59.9182 49.766 59.9998 49.9994 59.9998C50.2328 59.9998 50.4588 59.9182 50.6383 59.7691C50.8178 59.62 50.9395 59.4128 50.9824 59.1834C52.1504 52.8424 52.8394 52.1534 59.1824 50.9834C59.4118 50.9405 59.619 50.8188 59.7681 50.6393C59.9172 50.4598 59.9988 50.2337 59.9988 50.0004C59.9988 49.767 59.9172 49.541 59.7681 49.3615C59.619 49.1819 59.4118 49.0602 59.1824 49.0174V49.0174ZM50.0014 54.7094C49.7044 53.5775 49.1118 52.5449 48.2844 51.7174C47.4569 50.8899 46.4243 50.2973 45.2924 50.0004C46.4243 49.7034 47.4569 49.1108 48.2844 48.2833C49.1118 47.4559 49.7044 46.4233 50.0014 45.2914C50.2984 46.4233 50.8909 47.4559 51.7184 48.2833C52.5459 49.1108 53.5785 49.7034 54.7104 50.0004C53.5785 50.2973 52.5459 50.8899 51.7184 51.7174C50.8909 52.5449 50.2984 53.5775 50.0014 54.7094V54.7094Z" fill="#fb923c"/>
</svg>
