<?xml version="1.0" encoding="utf-8"?>
<!-- Generator: Adobe Illustrator 23.0.1, SVG Export Plug-In . SVG Version: 6.00 Build 0)  -->
<svg version="1.1" id="Layer_1" xmlns="http://www.w3.org/2000/svg" xmlns:xlink="http://www.w3.org/1999/xlink" x="0px" y="0px"
	 viewBox="0 0 872.4 318.1" style="enable-background:new 0 0 872.4 318.1;" xml:space="preserve">
<style type="text/css">
	.st0{enable-background:new    ;}
	.st1{fill:#F9770E;}
</style>
<g transform="translate(0.000000,267.000000) scale(0.100000,-0.100000)">
	<path d="M3317.1,2649.1c-523.4-48-1040.3-196.3-1559.4-444.9c-418.7-200.6-497.2-224.6-868-261.7c-202.8-19.6-366.4-48-444.9-78.5
		c-135.2-50.2-314.1-200.6-353.3-296.6c-48-124.3-69.8-335.9-82.9-763.3L-4.4,361.4l128.7,6.5l128.7,6.5v403.5
		c2.2,396.9,17.4,612.8,56.7,711c30.5,85.1,152.7,183.2,268.3,215.9c61.1,17.4,224.6,41.4,362,54.5
		c388.2,37.1,451.4,54.5,937.8,283.5c396.9,187.6,667.4,281.3,994.5,346.8c641.2,130.9,1343.4,117.8,1792.7-30.5
		c224.6-76.3,649.9-301,994.5-527.8c399.1-266.1,412.2-268.3,998.9-268.3c353.3,2.2,540.9-6.5,680.4-32.7
		c375.1-65.4,752.4-224.6,953.1-399.1c109-96,111.2-102.5,102.5-198.5c-6.5-61.1-37.1-143.9-82.9-215.9
		c-61.1-102.5-69.8-128.7-61.1-226.8c8.7-80.7,26.2-124.3,58.9-150.5c32.7-28.4,45.8-61.1,45.8-130.9v-91.6l130.9,13.1
		c150.5,17.4,213.7,50.2,233.4,120c15.3,61.1-37.1,124.3-150.5,181c-102.5,52.3-104.7,87.2-13.1,259.5
		c89.4,170.1,104.7,329.3,41.4,429.6c-100.3,161.4-484.2,394.7-830.9,503.8c-329.3,106.9-462.4,122.1-1035.9,124.3
		c-628.1,2.2-564.9-15.3-970.5,259.5c-311.9,209.4-881.1,495.1-1112.3,558.3C4285.5,2664.4,3796.9,2694.9,3317.1,2649.1z"/>
	<path d="M3219,2315.5c-370.8-61.1-693.5-146.1-772-202.8c-198.5-146.1-56.7-294.4,390.4-405.7c235.5-58.9,669.5-135.2,684.8-120
		c4.4,4.4,15.3,32.7,24,63.2c13.1,54.5,10.9,56.7-222.5,96c-423.1,69.8-791.7,178.8-791.7,233.4c0,85.1,857.1,259.5,1269.3,259.5
		c593.2,0,1223.5-237.7,1818.9-689.2c102.5-76.3,194.1-139.6,200.6-139.6c8.7,0,39.3,19.6,67.6,41.4l50.2,39.3l-93.8,76.3
		c-191.9,157-538.7,372.9-793.9,497.2c-436.2,211.5-726.2,283.5-1188.6,296.6C3602.8,2367.8,3489.4,2359.1,3219,2315.5z"/>
	<path d="M5079.3,372.3c-104.7-56.7-130.9-139.6-130.9-423.1c0-196.3,8.7-272.6,37.1-325c67.6-133,290.1-174.5,427.5-82.9
		c91.6,61.1,124.3,172.3,124.3,407.8S5504.6,295.9,5413,357C5325.8,415.9,5170.9,422.4,5079.3,372.3z M5301.8,176
		c28.4-72,28.4-381.7,0-455.8c-15.3-43.6-34.9-56.7-72-50.2c-45.8,6.5-48,15.3-54.5,255.2c-2.2,137.4,0,263.9,4.4,279.2
		C5199.3,254.5,5280,237.1,5301.8,176z"/>
	<path d="M6344.2,372.3c-104.7-56.7-130.9-139.6-130.9-423.1c0-196.3,8.7-272.6,37.1-325c67.6-133,290.1-174.5,427.5-82.9
		c91.6,61.1,124.3,172.3,124.3,407.8s-32.7,346.8-124.3,407.8C6590.7,415.9,6435.8,422.4,6344.2,372.3z M6566.7,176
		c28.4-72,28.4-381.7,0-455.8c-15.3-43.6-34.9-56.7-72-50.2c-45.8,6.5-48,15.3-54.5,255.2c-2.2,137.4,0,263.9,4.4,279.2
		C6464.2,254.5,6544.9,237.1,6566.7,176z"/>
	<path d="M7703,376.6c-72-39.3-109-115.6-111.2-220.3c0-109,34.9-161.4,187.6-274.8c100.3-74.2,120-98.1,113.4-146.1
		c-4.4-41.4-21.8-61.1-54.5-65.4c-39.3-6.5-50.2,6.5-63.2,69.8c-13.1,74.2-17.4,78.5-98.1,78.5c-102.5,0-122.1-34.9-87.2-150.5
		c34.9-117.8,91.6-161.4,226.8-170.1c148.3-10.9,242.1,43.6,279.2,165.7c50.2,170.1,15.3,235.5-229,423.1
		c-82.9,63.2-102.5,133-43.6,154.8c50.2,19.6,52.3,17.4,78.5-54.5c21.8-61.1,28.4-65.4,113.4-58.9c85.1,6.5,89.4,8.7,80.7,72
		c-2.2,37.1-15.3,82.9-26.2,102.5C8019.2,396.3,7812,437.7,7703,376.6z"/>
	<path d="M1310.7,378.8c0-10.9,150.5-759,163.6-817.8c10.9-45.8,21.8-50.2,126.5-43.6l113.4,6.5l21.8,189.7
		c13.1,104.7,28.4,196.3,37.1,202.8c6.5,6.5,17.4-52.3,26.2-130.9c28.4-279.2,24-272.6,152.7-272.6h113.4L2146-66.1
		c45.8,229,82.9,427.5,80.7,436.2c0,8.7-45.8,15.3-102.5,10.9l-104.7-6.5l-15.3-141.8c-8.7-78.5-21.8-196.3-30.5-261.7l-15.3-120
		l-28.4,196.3c-54.5,368.6-39.3,338-159.2,338H1664l-41.4-266.1L1581.1-149l-30.5,268.3l-28.4,266.1h-104.7
		C1358.7,385.4,1310.7,383.2,1310.7,378.8z"/>
	<path d="M2316.1-33.4c-48-231.2-89.4-429.6-89.4-438.4c0-8.7,45.8-15.3,104.7-10.9c98.1,6.5,102.5,8.7,109,78.5
		c6.5,65.4,13.1,69.8,91.6,69.8c78.5,0,85.1-4.4,91.6-69.8c6.5-69.8,10.9-72,111.2-78.5c61.1-4.4,102.5,2.2,102.5,17.4
		c0,10.9-39.3,205-87.2,427.5c-48,224.6-87.2,410-87.2,414.4s-56.7,8.7-126.5,8.7h-128.7L2316.1-33.4z M2573.4-109.7
		c2.2-37.1-10.9-50.2-43.6-50.2c-43.6,0-45.8,6.5-30.5,126.5c8.7,67.6,21.8,135.2,28.4,146.1C2540.7,134.6,2571.3-7.2,2573.4-109.7z
		"/>
	<path d="M2924.6-50.8V-487h109h109v161.4v159.2l100.3,13.1c176.7,19.6,277,178.8,226.8,364.2c-37.1,135.2-117.8,174.5-353.3,174.5
		h-191.9V-50.8z M3264.8,158.5c17.4-67.6-24-143.9-78.5-143.9c-37.1,0-43.6,15.3-43.6,98.1c0,89.4,4.4,98.1,54.5,98.1
		C3236.4,210.9,3253.9,195.6,3264.8,158.5z"/>
	<path d="M5607.1,298.1c0-85.1,2.2-87.2,76.3-87.2h76.3v-348.9V-487h109h109v348.9v348.9h87.2h87.2v87.2v87.2h-272.6h-272.6V298.1z"
		/>
	<path d="M6915.6-50.8V-487h109h109v174.5c0,159.2,4.4,174.5,43.6,174.5c61.1,0,87.2-65.4,87.2-215.9v-133h122.1
		c104.7,0,120,4.4,109,39.3c-6.5,19.6-17.4,96-24,167.9c-8.7,72-30.5,154.8-48,181c-28.4,45.8-28.4,56.7,4.4,91.6
		c91.6,100.3,50.2,327.1-67.6,370.8c-30.5,13.1-143.9,21.8-250.8,21.8h-194.1V-50.8z M7249.3,186.9c10.9-19.6,15.3-61.1,6.5-91.6
		c-10.9-43.6-28.4-58.9-67.6-58.9c-50.2,0-54.5,8.7-54.5,100.3c0,89.4,4.4,98.1,45.8,91.6C7205.7,224,7236.2,206.5,7249.3,186.9z"/>
</g>
<g class="st0">
	<path class="st1" d="M70.2,313.5v-24.2c7.4,4.4,13.7,6.5,18.8,6.5c3.1,0,5.2-0.9,7-2.4c1.7-1.5,2.6-3.7,2.6-6.5c0-2-0.7-3.9-2-5.9
		c-1.3-1.7-3.7-3.9-7.2-6.5c-8.1-6.3-14-12-17.7-17.4c-3.7-5.5-5.5-11.3-5.5-17.9c0-8.9,2.8-16.4,8.5-22c5.7-5.7,12.9-8.5,22-8.5
		c6.5,0,13.3,1.5,19.8,4.4v23.3c-7-3.9-12.6-5.7-17-5.7c-2.8,0-5.2,0.7-7,2.2c-1.7,1.5-2.6,3.5-2.6,5.9c0,4.4,3.9,9.2,11.8,14.6
		c4.6,3.3,9.4,7.6,14.2,13.5c4.8,5.9,7.2,12.6,7.2,20.3c0,8.9-3.1,16.4-9.4,22.2c-6.3,5.9-14.2,8.7-23.8,8.7
		C83.3,318.1,76.8,316.6,70.2,313.5z"/>
</g>
<g>
	<g class="st0">
		<path class="st1" d="M387.8,211.7h29.9c4.1,22.5,7.6,41.7,10,57.8l2.6-16.1c1.1-6.3,2.2-12.4,3.3-18.3l4.6-23.3h30.3l11.8,103.8
			h-23.3l-6.3-71.3L436,315.5H420l-15.3-71.5l-6.1,71.5h-22.2L387.8,211.7z"/>
	</g>
</g>
</svg>
