<?xml version="1.0" encoding="utf-8"?>
<!-- Generator: Adobe Illustrator 23.0.1, SVG Export Plug-In . SVG Version: 6.00 Build 0)  -->
<svg version="1.1" id="Layer_1" xmlns="http://www.w3.org/2000/svg" xmlns:xlink="http://www.w3.org/1999/xlink" x="0px" y="0px"
	 viewBox="0 0 400 267" style="enable-background:new 0 0 400 267;" xml:space="preserve">
<style type="text/css">
	.st0{enable-background:new    ;}
	.st1{fill:#F9770E;}
</style>
<g transform="translate(0.000000,267.000000) scale(0.100000,-0.100000)">
	<path d="M1520,2058c-240-22-477-90-715-204c-192-92-228-103-398-120c-93-9-168-22-204-36c-62-23-144-92-162-136
		c-22-57-32-154-38-350l-6-203l59,3l59,3v185c1,182,8,281,26,326c14,39,70,84,123,99c28,8,103,19,166,25c178,17,207,25,430,130
		c182,86,306,129,456,159c294,60,616,54,822-14c103-35,298-138,456-242c183-122,189-123,458-123c162,1,248-3,312-15
		c172-30,345-103,437-183c50-44,51-47,47-91c-3-28-17-66-38-99c-28-47-32-59-28-104c4-37,12-57,27-69c15-13,21-28,21-60v-42l60,6
		c69,8,98,23,107,55c7,28-17,57-69,83c-47,24-48,40-6,119c41,78,48,151,19,197c-46,74-222,181-381,231c-151,49-212,56-475,57
		c-288,1-259-7-445,119c-143,96-404,227-510,256C1964,2065,1740,2079,1520,2058z"/>
	<path d="M1475,1905c-170-28-318-67-354-93c-91-67-26-135,179-186c108-27,307-62,314-55c2,2,7,15,11,29c6,25,5,26-102,44
		c-194,32-363,82-363,107c0,39,393,119,582,119c272,0,561-109,834-316c47-35,89-64,92-64c4,0,18,9,31,19l23,18l-43,35
		c-88,72-247,171-364,228c-200,97-333,130-545,136C1651,1929,1599,1925,1475,1905z"/>
	<path d="M2328,1014c-48-26-60-64-60-194c0-90,4-125,17-149c31-61,133-80,196-38c42,28,57,79,57,187s-15,159-57,187
		C2441,1034,2370,1037,2328,1014z M2430,924c13-33,13-175,0-209c-7-20-16-26-33-23c-21,3-22,7-25,117c-1,63,0,121,2,128
		C2383,960,2420,952,2430,924z"/>
	<path d="M2908,1014c-48-26-60-64-60-194c0-90,4-125,17-149c31-61,133-80,196-38c42,28,57,79,57,187s-15,159-57,187
		C3021,1034,2950,1037,2908,1014z M3010,924c13-33,13-175,0-209c-7-20-16-26-33-23c-21,3-22,7-25,117c-1,63,0,121,2,128
		C2963,960,3000,952,3010,924z"/>
	<path d="M3531,1016c-33-18-50-53-51-101c0-50,16-74,86-126c46-34,55-45,52-67c-2-19-10-28-25-30c-18-3-23,3-29,32c-6,34-8,36-45,36
		c-47,0-56-16-40-69c16-54,42-74,104-78c68-5,111,20,128,76c23,78,7,108-105,194c-38,29-47,61-20,71c23,9,24,8,36-25
		c10-28,13-30,52-27s41,4,37,33c-1,17-7,38-12,47C3676,1025,3581,1044,3531,1016z"/>
	<path d="M600,1017c0-5,69-348,75-375c5-21,10-23,58-20l52,3l10,87c6,48,13,90,17,93c3,3,8-24,12-60c13-128,11-125,70-125h52l37,193
		c21,105,38,196,37,200c0,4-21,7-47,5l-48-3l-7-65c-4-36-10-90-14-120l-7-55l-13,90c-25,169-18,155-73,155h-49l-19-122l-19-123
		l-14,123l-13,122h-48C622,1020,600,1019,600,1017z"/>
	<path d="M1061,828c-22-106-41-197-41-201s21-7,48-5c45,3,47,4,50,36c3,30,6,32,42,32s39-2,42-32c3-32,5-33,51-36c28-2,47,1,47,8
		c0,5-18,94-40,196c-22,103-40,188-40,190s-26,4-58,4h-59L1061,828z M1179,793c1-17-5-23-20-23c-20,0-21,3-14,58c4,31,10,62,13,67
		C1164,905,1178,840,1179,793z"/>
	<path d="M1340,820V620h50h50v74v73l46,6c81,9,127,82,104,167c-17,62-54,80-162,80h-88V820z M1496,916c8-31-11-66-36-66
		c-17,0-20,7-20,45c0,41,2,45,25,45C1483,940,1491,933,1496,916z"/>
	<path d="M2570,980c0-39,1-40,35-40h35V780V620h50h50v160v160h40h40v40v40h-125h-125V980z"/>
	<path d="M3170,820V620h50h50v80c0,73,2,80,20,80c28,0,40-30,40-99v-61h56c48,0,55,2,50,18c-3,9-8,44-11,77c-4,33-14,71-22,83
		c-13,21-13,26,2,42c42,46,23,150-31,170c-14,6-66,10-115,10h-89V820z M3323,929c5-9,7-28,3-42c-5-20-13-27-31-27c-23,0-25,4-25,46
		c0,41,2,45,21,42C3303,946,3317,938,3323,929z"/>
</g>
<g class="st0">
	<path class="st1" d="M32.1,204v-11.1c3.4,2,6.3,3,8.6,3c1.4,0,2.4-0.4,3.2-1.1c0.8-0.7,1.2-1.7,1.2-3c0-0.9-0.3-1.8-0.9-2.7
		c-0.6-0.8-1.7-1.8-3.3-3c-3.7-2.9-6.4-5.5-8.1-8c-1.7-2.5-2.5-5.2-2.5-8.2c0-4.1,1.3-7.5,3.9-10.1c2.6-2.6,5.9-3.9,10.1-3.9
		c3,0,6.1,0.7,9.1,2v10.7c-3.2-1.8-5.8-2.6-7.8-2.6c-1.3,0-2.4,0.3-3.2,1c-0.8,0.7-1.2,1.6-1.2,2.7c0,2,1.8,4.2,5.4,6.7
		c2.1,1.5,4.3,3.5,6.5,6.2c2.2,2.7,3.3,5.8,3.3,9.3c0,4.1-1.4,7.5-4.3,10.2c-2.9,2.7-6.5,4-10.9,4C38.1,206.1,35.1,205.4,32.1,204z"
		/>
</g>
<g>
	<g class="st0">
		<path class="st1" d="M177.7,157.3h13.7c1.9,10.3,3.5,19.1,4.6,26.5l1.2-7.4c0.5-2.9,1-5.7,1.5-8.4l2.1-10.7h13.9l5.4,47.6h-10.7
			l-2.9-32.7l-6.7,32.7h-7.3l-7-32.8l-2.8,32.8h-10.2L177.7,157.3z"/>
	</g>
</g>
</svg>
